<svg width="29" height="28" viewBox="0 0 29 28" fill="none" xmlns="http://www.w3.org/2000/svg">
<path d="M26.5417 3.5H9.04167C8.23667 3.5 7.60667 3.90833 7.18667 4.52667L0.875 14L7.18667 23.4617C7.60667 24.08 8.23667 24.5 9.04167 24.5H26.5417C27.825 24.5 28.875 23.45 28.875 22.1667V5.83333C28.875 4.55 27.825 3.5 26.5417 3.5ZM26.5417 22.1667H9.12333L3.675 14L9.11167 5.83333H26.5417V22.1667ZM13.02 19.8333L17.2083 15.645L21.3967 19.8333L23.0417 18.1883L18.8533 14L23.0417 9.81167L21.3967 8.16667L17.2083 12.355L13.02 8.16667L11.375 9.81167L15.5633 14L11.375 18.1883L13.02 19.8333Z" />
</svg>
