<svg width="29" height="28" viewBox="0 0 29 28" fill="none" xmlns="http://www.w3.org/2000/svg">
<path d="M3.875 12.8333H24.875V15.1667H3.875V12.8333ZM14.3785 3.5C14.8381 3.50046 15.2932 3.59145 15.7176 3.76776C16.1421 3.94408 16.5277 4.20227 16.8523 4.5276C17.177 4.85293 17.4345 5.23903 17.6099 5.66384C17.7854 6.08866 17.8755 6.54387 17.875 7.0035C17.8745 7.46313 17.7836 7.91816 17.6072 8.34263C17.4309 8.76709 17.1727 9.15267 16.8474 9.47735C16.5221 9.80203 16.136 10.0595 15.7112 10.2349C15.2863 10.4104 14.8311 10.5005 14.3715 10.5C13.4432 10.4991 12.5534 10.1294 11.8977 9.4724C11.2419 8.81537 10.8741 7.92476 10.875 6.9965C10.8759 6.06824 11.2456 5.17837 11.9026 4.52265C12.5596 3.86693 13.4502 3.49907 14.3785 3.5ZM14.375 5.83333C14.0656 5.83333 13.7688 5.95625 13.55 6.17504C13.3312 6.39384 13.2083 6.69058 13.2083 7C13.2083 7.30942 13.3312 7.60617 13.55 7.82496C13.7688 8.04375 14.0656 8.16667 14.375 8.16667C14.6844 8.16667 14.9812 8.04375 15.2 7.82496C15.4187 7.60617 15.5417 7.30942 15.5417 7C15.5417 6.69058 15.4187 6.39384 15.2 6.17504C14.9812 5.95625 14.6844 5.83333 14.375 5.83333ZM14.3785 17.5C14.8381 17.5005 15.2932 17.5914 15.7176 17.7678C16.1421 17.9441 16.5277 18.2023 16.8523 18.5276C17.177 18.8529 17.4345 19.239 17.6099 19.6638C17.7854 20.0887 17.8755 20.5439 17.875 21.0035C17.8745 21.4631 17.7836 21.9182 17.6072 22.3426C17.4309 22.7671 17.1727 23.1527 16.8474 23.4774C16.5221 23.802 16.136 24.0595 15.7112 24.2349C15.2863 24.4104 14.8311 24.5005 14.3715 24.5C13.4432 24.4991 12.5534 24.1294 11.8977 23.4724C11.2419 22.8154 10.8741 21.9248 10.875 20.9965C10.8759 20.0682 11.2456 19.1784 11.9026 18.5227C12.5596 17.8669 13.4502 17.4991 14.3785 17.5ZM14.375 19.8333C14.0656 19.8333 13.7688 19.9563 13.55 20.175C13.3312 20.3938 13.2083 20.6906 13.2083 21C13.2083 21.3094 13.3312 21.6062 13.55 21.825C13.7688 22.0438 14.0656 22.1667 14.375 22.1667C14.6844 22.1667 14.9812 22.0438 15.2 21.825C15.4187 21.6062 15.5417 21.3094 15.5417 21C15.5417 20.6906 15.4187 20.3938 15.2 20.175C14.9812 19.9563 14.6844 19.8333 14.375 19.8333Z" />
</svg>
