<svg width="29" height="28" viewBox="0 0 29 28" fill="none" xmlns="http://www.w3.org/2000/svg">
<path d="M8.87499 4.66669C6.62332 4.66669 4.79166 6.49835 4.79166 8.75002C4.79166 11.0017 6.62332 12.8334 8.87499 12.8334C11.1267 12.8334 12.9583 11.0017 12.9583 8.75002C12.9583 6.49835 11.1267 4.66669 8.87499 4.66669ZM8.87499 10.5C7.90666 10.5 7.12499 9.71835 7.12499 8.75002C7.12499 7.78169 7.90666 7.00002 8.87499 7.00002C9.84332 7.00002 10.625 7.78169 10.625 8.75002C10.625 9.71835 9.84332 10.5 8.87499 10.5ZM19.375 15.1667C17.1233 15.1667 15.2917 16.9984 15.2917 19.25C15.2917 21.5017 17.1233 23.3334 19.375 23.3334C21.6267 23.3334 23.4583 21.5017 23.4583 19.25C23.4583 16.9984 21.6267 15.1667 19.375 15.1667ZM19.375 21C18.4067 21 17.625 20.2184 17.625 19.25C17.625 18.2817 18.4067 17.5 19.375 17.5C20.3433 17.5 21.125 18.2817 21.125 19.25C21.125 20.2184 20.3433 21 19.375 21ZM6.43666 23.3334L4.79166 21.6884L21.8133 4.66669L23.4583 6.31169L6.43666 23.3334Z" />
</svg>
