<svg width="250" height="150" viewBox="0 0 250 150" fill="none" xmlns="http://www.w3.org/2000/svg">
<path d="M47.2631 100.331L32.0195 100.052C27.0838 99.955 22.136 100.149 17.2973 99.1425C9.93625 97.6388 9.41479 90.2656 8.86908 84.0808C8.1172 75.3858 8.40825 66.5331 9.82711 57.9108C10.6275 53.0721 13.7805 50.1859 18.6555 49.8706C35.1118 48.7307 51.6773 48.8641 68.0972 49.3977C69.8313 49.4462 71.5776 49.713 73.2875 50.0161C81.7279 51.4956 81.9341 59.8511 82.4798 66.8848C83.0255 73.9912 82.7951 81.1339 81.7522 88.1918C80.9154 94.037 79.3146 98.9363 72.5599 99.4093C64.0953 100.028 55.8247 100.525 47.3358 100.367C47.3358 100.331 47.2873 100.331 47.2631 100.331ZM38.3012 85.536C44.68 81.8737 50.9375 78.272 57.2799 74.6339C50.889 70.9715 44.6436 67.3698 38.3012 63.7317V85.536Z" fill="#FF0000"/>
<path d="M205.144 93.6855C204.853 94.8739 204.598 95.8077 204.344 96.8021H198.377V50.7803H205.338V67.758C205.702 67.2972 205.884 67.1032 206.041 66.897C207.23 65.2599 208.77 64.1927 210.759 63.7804C213.924 63.1619 216.628 64.5565 217.586 67.6004C218.205 69.4922 218.605 71.5174 218.654 73.4941C218.751 78.5753 218.678 83.6444 218.496 88.7256C218.423 90.2778 217.95 91.8664 217.356 93.3217C215.403 98.124 209.025 98.8516 205.86 94.692C205.666 94.4374 205.484 94.1584 205.144 93.6855ZM205.484 81.0249V89.441C205.484 90.8114 206.211 91.6482 207.582 91.9635C208.928 92.2788 210.019 91.7573 210.565 90.5082C210.795 89.9868 211.026 89.441 211.038 88.8953C211.171 83.7535 211.292 78.6117 211.329 73.4577C211.329 72.4997 211.098 71.5053 210.807 70.5715C210.262 68.8858 208.758 68.3886 207.278 69.3709C206.163 70.1228 205.484 71.19 205.484 72.6088V81.0249ZM186.566 64.4352H193.854V96.8264H188.166C187.96 95.6015 187.754 94.3403 187.511 92.8609C187.123 93.4308 186.893 93.7946 186.65 94.1584C184.759 96.887 182.079 97.8208 178.913 97.3236C176.209 96.887 174.584 94.8012 174.22 91.3814C174.111 90.3627 174.063 89.3319 174.063 88.3132C174.038 80.7339 174.063 73.1303 174.063 65.5509V64.411H181.436V65.7328C181.436 73.0575 181.412 80.3701 181.46 87.6948C181.46 88.7377 181.569 89.817 181.751 90.8599C181.957 91.9271 182.733 92.3151 183.776 92.2424C185.462 92.109 186.626 90.8599 186.626 89.1864V65.8662C186.566 65.3933 186.566 64.9567 186.566 64.4352ZM136.384 64.411H143.709V65.7813C143.709 73.0696 143.685 80.3458 143.733 87.6099C143.733 88.6528 143.83 89.7321 144.048 90.7508C144.327 91.9513 145.031 92.3394 146.231 92.1817C147.893 91.9513 148.899 90.7993 148.911 89.1136V65.9147V64.4595H156.2V96.8264H150.536C150.33 95.6258 150.124 94.3888 149.857 92.8245C149.493 93.3702 149.287 93.6855 149.081 94.0129C147.189 96.79 144.533 97.8087 141.296 97.3114C138.7 96.9234 137.112 95.0073 136.627 91.8664C136.493 90.8842 136.396 89.914 136.396 88.9317C136.372 81.0613 136.372 73.1545 136.372 65.2841L136.384 64.411ZM132.625 81.704C132.601 82.7955 132.528 83.8869 132.467 84.9783C132.188 88.2526 132.055 92.8972 129.411 95.2862C127.726 96.79 125.591 97.3357 123.384 97.4085C122.402 97.4327 121.407 97.4327 120.425 97.2993C115.78 96.596 113.622 94.5465 112.846 89.441C111.96 83.5473 111.888 77.5566 112.943 71.6629C114.034 65.563 117.794 63.4044 123.639 63.8046C129.096 64.1927 131.533 67.7702 132.176 72.8635C132.528 75.7861 132.698 78.7451 132.625 81.704ZM125.203 80.5884C125.203 78.5146 125.252 76.4288 125.179 74.3551C125.13 73.1545 124.973 71.9418 124.718 70.7534C124.427 69.383 123.554 68.7282 122.462 68.7524C121.395 68.7767 120.643 69.4315 120.255 70.7049C120.122 71.1778 119.976 71.6629 119.976 72.1359C119.976 75.3859 119.952 78.648 119.928 81.8981C119.904 84.9298 119.516 88.1071 120.474 91.0054C120.765 91.8907 121.517 92.3758 122.499 92.3758C123.457 92.3758 124.087 91.9028 124.439 91.0539C124.718 90.3991 124.961 89.6836 124.961 88.9802C125.045 86.191 125.203 83.3897 125.203 80.5884ZM102.15 74.4885C102.792 71.3476 103.399 68.2795 104.066 65.1992C104.903 61.2822 105.836 57.3652 106.661 53.4361C106.867 52.478 107.255 52.2476 108.165 52.2719C110.117 52.3447 112.106 52.2961 114.192 52.2961C113.513 54.7943 112.846 57.1712 112.191 59.5117C110.117 66.8606 108.043 74.2338 105.994 81.607C105.836 82.177 105.764 82.7955 105.764 83.4018C105.739 87.428 105.764 91.442 105.764 95.4681V96.7779H98.645C98.6208 96.4141 98.5723 96.0502 98.5723 95.6864C98.5723 93.4066 98.3904 91.1146 98.5965 88.859C99.118 83.4382 97.396 78.454 96.0014 73.4092C94.1581 66.7394 92.2905 60.0453 90.4472 53.3754C90.3502 53.0601 90.3138 52.7206 90.2168 52.3325H97.4809C99.0089 59.6936 100.549 67.0547 102.15 74.4885ZM241.428 82.941H229.155C229.289 85.4028 229.337 87.7433 229.592 90.0595C229.774 91.6724 230.659 92.3636 232.054 92.3758C233.509 92.4 234.358 91.6724 234.697 90.0716C234.807 89.5502 234.879 89.0287 234.928 88.4951C234.976 88.0222 235.001 87.5129 235.037 86.8337C237.111 86.9429 239.136 87.0642 241.137 87.149C242.301 90.6052 240.203 95.0437 236.674 96.4141C233.897 97.5055 231.047 97.5055 228.21 96.6687C226.112 96.0502 224.547 94.7163 223.844 92.6668C223.189 90.7508 222.571 88.7498 222.437 86.7489C222.073 81.8132 221.94 76.829 222.692 71.8812C222.825 71.0566 223.056 70.2683 223.31 69.4679C224.329 66.1694 226.548 64.1442 229.98 63.8046C231.848 63.6227 233.776 63.6955 235.619 64.0108C238.602 64.5323 240.191 66.6787 240.882 69.4922C241.198 70.814 241.428 72.1722 241.476 73.5183C241.489 76.6107 241.428 79.6788 241.428 82.941ZM234.455 78.6844C234.455 76.2469 234.479 73.9549 234.431 71.6508C234.431 71.1051 234.225 70.5351 234.018 70.0136C233.606 68.995 232.745 68.7161 231.714 68.7161C230.683 68.7161 230.029 69.2375 229.774 70.1713C228.998 72.9726 229.252 75.8346 229.277 78.7087C231.132 78.6844 232.818 78.6844 234.455 78.6844Z" fill="#282828"/>
<path d="M161.827 58.2383H154.611V52.3931H176.148V58.2019H168.981V96.7778H161.839L161.827 58.2383Z" fill="#282828"/>
</svg>
